<svg xmlns="http://www.w3.org/2000/svg" width="13.48" height="13.48" viewBox="0 0 13.48 13.48">
  <g id="noun-fullscreen-1584150" transform="translate(-163.081 -93.079)">
    <path id="Path_116987" data-name="Path 116987" d="M369.318,99.17a.649.649,0,0,0,.459-.19l3.435-3.435v1.029a.649.649,0,0,0,1.3,0v-2.6a.649.649,0,0,0-.649-.649h-2.6a.649.649,0,0,0,0,1.3h1.029l-3.435,3.435a.649.649,0,0,0,.459,1.108Z" transform="translate(-198.199)" fill="#ff3221" stroke="#fff" stroke-width="0.5"/>
    <path id="Path_116988" data-name="Path 116988" d="M372.515,303.426h-1.029a.649.649,0,0,0,0,1.3h2.6a.649.649,0,0,0,.649-.649v-2.6a.649.649,0,0,0-1.3,0v1.029L370,299.074a.649.649,0,0,0-.918.918Z" transform="translate(-198.42 -198.415)" fill="#ff3221" stroke="#fff" stroke-width="0.5"/>
    <path id="Path_116989" data-name="Path 116989" d="M163.733,304.677a.644.644,0,0,0,.248.05h2.6a.649.649,0,0,0,0-1.3h-1.029l3.435-3.435a.649.649,0,0,0-.918-.918l-3.435,3.435v-1.029a.649.649,0,0,0-1.3,0v2.6a.649.649,0,0,0,.4.6Z" transform="translate(-0.001 -198.418)" fill="#ff3221" stroke="#fff" stroke-width="0.5"/>
    <path id="Path_116990" data-name="Path 116990" d="M163.98,97.225a.649.649,0,0,0,.649-.649V95.547l3.435,3.435a.649.649,0,0,0,.918-.918l-3.435-3.435h1.029a.649.649,0,0,0,0-1.3h-2.6a.649.649,0,0,0-.649.649v2.6a.649.649,0,0,0,.649.649Z" transform="translate(0 -0.002)" fill="#ff3221" stroke="#fff" stroke-width="0.5"/>
  </g>
</svg>
